# xmcd
#
# Track frame offsets:
#	150
#	15434
#	34197
#	46992
#	63948
#	74608
#	93370
#	120715
#	132039
#	145850
#
# Disc length: 2112 seconds
#
# Revision: 0
# Processed by: cddbd v1.5.2PL0 Copyright (c) Steve Scherf et al.
# Submitted via: dBpowerAMP V4.0
#
DISCID=85083e0a
DTITLE=Campfire Collaboration - Nameless
DYEAR=1900
DGENRE=Country
TTITLE0=Nameless Tennessee
TTITLE1=Lily of the West
TTITLE2=Roll in my Sweet Baby's Arms
TTITLE3=Like a Hurricane
TTITLE4=Where Dark Eyes Shine Bright
TTITLE5=Darlin' Corey
TTITLE6=The Wayfaring Stranger
TTITLE7=You're Gonna Lose
TTITLE8=Give Me One Good Reason Not To Be In Love With You
TTITLE9=You've Been A Friend To Me
EXTD=
EXTT0=
EXTT1=
EXTT2=
EXTT3=
EXTT4=
EXTT5=
EXTT6=
EXTT7=
EXTT8=
EXTT9=
PLAYORDER=
